<svg xmlns="http://www.w3.org/2000/svg" xmlns:xlink="http://www.w3.org/1999/xlink" width="16.849" height="16.85" viewBox="0 0 16.849 16.85">
  <defs>
    <linearGradient id="linear-gradient" x1="0.5" x2="0.5" y2="1" gradientUnits="objectBoundingBox">
      <stop offset="0" stop-color="#0066bf"/>
      <stop offset="1" stop-color="#692ad8"/>
    </linearGradient>
  </defs>
  <path id="clock" d="M8.366,0a8.366,8.366,0,1,0,8.366,8.366A8.366,8.366,0,0,0,8.366,0Zm.578,9.389a.564.564,0,0,1-.007.066c0,.017,0,.033-.007.05s-.01.034-.016.05a.592.592,0,0,1-.021.06s0,.007,0,.01a.573.573,0,0,1-.043.076l0,0a.576.576,0,0,1-.061.074L8.764,9.8a.554.554,0,0,1-.061.05l-.02.014A.579.579,0,0,1,8.6,9.91l-.02.007a.581.581,0,0,1-.078.024l-.029.006a.576.576,0,0,1-.1.011l-.021,0a.582.582,0,0,1-.1-.011l-.03-.009a.587.587,0,0,1-.087-.03l-.01,0L4.912,8.389a.579.579,0,0,1,.494-1.047L7.788,8.466V3.472a.579.579,0,1,1,1.157,0V9.379h0S8.944,9.386,8.944,9.389Z" transform="translate(0.058 0.058)" stroke="#707070" stroke-width="0.117" fill="url(#linear-gradient)"/>
</svg>
