<svg xmlns="http://www.w3.org/2000/svg" xmlns:xlink="http://www.w3.org/1999/xlink" width="18.877" height="18.023" viewBox="0 0 18.877 18.023">
  <defs>
    <linearGradient id="linear-gradient" x1="0.5" x2="0.5" y2="1" gradientUnits="objectBoundingBox">
      <stop offset="0" stop-color="#0066bf"/>
      <stop offset="1" stop-color="#692ad8"/>
    </linearGradient>
  </defs>
  <g id="RAM" transform="translate(12.686 0) rotate(50)">
    <path id="Path_13" data-name="Path 13" d="M13.761,7.463h.21V1.378H11.9V0H5.105l.027.243a.516.516,0,0,1-.541.483L4.34.711V15.9l.223-.011a.115.115,0,0,0,.027,0,.515.515,0,0,1,.542.482v.187H11.9V15.6h2.074V9.1h-.209a.874.874,0,0,1-.918-.818A.873.873,0,0,1,13.761,7.463Zm-3.633,7.812H5.864V13.6h4.264v1.677Zm0-2.227H5.864V11.371h4.264v1.677Zm0-2.335H5.864V9.036h4.264v1.678Zm0-3.1H5.864V5.94h4.264V7.617Zm0-2.227H5.864V3.713h4.264V5.39Zm0-2.335H5.864V1.378h4.264V3.055Zm3.423,6.4v5.77H11.9V14.135h1.22v-.374H11.9v-.413h1.22v-.374H11.9v-.4h1.22V12.2H11.9v-.359h1.22v-.374H11.9v-.413h1.22v-.374H11.9v-.4h1.22V9.905H11.9V6.845h1.22V6.47H11.9V6.057h1.22V5.683H11.9v-.4h1.22V4.909H11.9v-.36h1.22V4.175H11.9V3.762h1.22V3.388H11.9v-.4h1.22V2.614H11.9V1.752h1.654V7.1a1.24,1.24,0,0,0-1.129,1.178A1.238,1.238,0,0,0,13.551,9.457Z" transform="translate(-4.34)" fill="url(#linear-gradient)"/>
  </g>
</svg>
