<svg xmlns="http://www.w3.org/2000/svg" width="19.325" height="17.553" viewBox="0 0 19.325 17.553">
  <g id="read" transform="translate(0 0)">
    <g id="Group_23" data-name="Group 23" transform="translate(0 0)">
      <g id="Group_22" data-name="Group 22">
        <path id="Path_25" data-name="Path 25" d="M12.278,15.853A6.058,6.058,0,0,1,6.536,11.7H3.321V10.516H6.272A5.971,5.971,0,0,1,6.3,8.856H3.321V7.67h3.3a6.05,6.05,0,0,1,.954-1.66H3.321V4.824H8.852a6.03,6.03,0,0,1,5.617-.655V1.146H0V16.327A2.379,2.379,0,0,0,2.372,18.7H12.1a2.379,2.379,0,0,0,2.372-2.372V15.44A6.015,6.015,0,0,1,12.278,15.853Z" transform="translate(0 -1.146)" fill="gray"/>
      </g>
    </g>
    <g id="Group_25" data-name="Group 25" transform="translate(7.415 3.795)">
      <g id="Group_24" data-name="Group 24">
        <path id="Path_26" data-name="Path 26" d="M18.5,13.615a4.9,4.9,0,1,0-1.147,1.2l2.975,2.975L21.5,16.617Zm-4.046.98a3.677,3.677,0,1,1,3.677-3.677A3.681,3.681,0,0,1,14.455,14.6Z" transform="translate(-9.592 -6.056)" fill="gray"/>
      </g>
    </g>
  </g>
</svg>
