<svg xmlns="http://www.w3.org/2000/svg" width="17.529" height="16.83" viewBox="0 0 17.529 16.83">
  <g id="thumbs-up" transform="translate(0.03 0.029)">
    <path id="Path_15" data-name="Path 15" d="M19.728,9.853a2.393,2.393,0,0,0,.6-1.627,2.125,2.125,0,0,0-2.1-2.1H15.209a2.75,2.75,0,0,1,.087-.262,1.827,1.827,0,0,1,.12-.24q.076-.131.109-.2.2-.371.3-.611a4.461,4.461,0,0,0,.207-.655,3.4,3.4,0,0,0,.1-.83c0-.175,0-.317-.006-.426a4.7,4.7,0,0,0-.054-.491,2.757,2.757,0,0,0-.131-.546,2.544,2.544,0,0,0-.262-.491,1.531,1.531,0,0,0-.437-.442,2.393,2.393,0,0,0-.655-.284,3.261,3.261,0,0,0-.9-.115A.672.672,0,0,0,13.2.747a1.9,1.9,0,0,0-.371.546,3.249,3.249,0,0,0-.213.568q-.06.24-.136.666-.1.459-.148.661a3.492,3.492,0,0,1-.191.529,1.673,1.673,0,0,1-.338.524,16.143,16.143,0,0,0-1.1,1.31q-.535.7-1.1,1.321t-.83.644a.716.716,0,0,0-.469.224.659.659,0,0,0-.2.475v7a.653.653,0,0,0,.207.486.722.722,0,0,0,.491.213,7.983,7.983,0,0,1,1.725.481q.841.283,1.316.431t1.326.317a8.113,8.113,0,0,0,1.572.169h1.408a2.713,2.713,0,0,0,2.151-.852,2.625,2.625,0,0,0,.535-1.976,2.124,2.124,0,0,0,.59-1.026,2.246,2.246,0,0,0,0-1.277,2.266,2.266,0,0,0,.469-1.5A2.6,2.6,0,0,0,19.728,9.853Z" transform="translate(-2.859 -0.54)" fill="#23a455" stroke="#707070" stroke-width="0.059"/>
    <path id="Path_16" data-name="Path 16" d="M3.843,11.34H.7a.672.672,0,0,0-.491.208A.671.671,0,0,0,0,12.039v6.988a.672.672,0,0,0,.208.491.673.673,0,0,0,.491.207H3.843a.708.708,0,0,0,.7-.7V12.039a.709.709,0,0,0-.7-.7ZM2.588,18.126a.68.68,0,0,1-.491.2.7.7,0,0,1-.5-1.19.692.692,0,0,1,.988,0,.692.692,0,0,1,0,.988Z" transform="translate(0 -4.352)" fill="#23a455" stroke="#707070" stroke-width="0.059"/>
  </g>
</svg>
